<svg width="162" height="44" viewBox="0 0 162 44" fill="none" xmlns="http://www.w3.org/2000/svg">
<path d="M53.5568 21.8472C52.3688 21.8472 51.2768 21.5712 50.2808 21.0192C49.2968 20.4672 48.5108 19.6992 47.9228 18.7152C47.3468 17.7192 47.0588 16.6032 47.0588 15.3672C47.0588 14.1312 47.3468 13.0212 47.9228 12.0372C48.5108 11.0532 49.2968 10.2852 50.2808 9.73319C51.2768 9.18119 52.3688 8.90519 53.5568 8.90519C54.7448 8.90519 55.8308 9.18119 56.8148 9.73319C57.8108 10.2852 58.5908 11.0532 59.1548 12.0372C59.7308 13.0212 60.0188 14.1312 60.0188 15.3672C60.0188 16.6032 59.7308 17.7192 59.1548 18.7152C58.5788 19.6992 57.7988 20.4672 56.8148 21.0192C55.8308 21.5712 54.7448 21.8472 53.5568 21.8472ZM53.5568 19.0392C54.5648 19.0392 55.3688 18.7032 55.9688 18.0312C56.5808 17.3592 56.8868 16.4712 56.8868 15.3672C56.8868 14.2512 56.5808 13.3632 55.9688 12.7032C55.3688 12.0312 54.5648 11.6952 53.5568 11.6952C52.5368 11.6952 51.7208 12.0252 51.1088 12.6852C50.5088 13.3452 50.2088 14.2392 50.2088 15.3672C50.2088 16.4832 50.5088 17.3772 51.1088 18.0492C51.7208 18.7092 52.5368 19.0392 53.5568 19.0392ZM71.1992 16.5372C71.1992 16.8252 71.1812 17.1252 71.1452 17.4372H64.1792C64.2272 18.0612 64.4252 18.5412 64.7732 18.8772C65.1332 19.2012 65.5712 19.3632 66.0872 19.3632C66.8552 19.3632 67.3892 19.0392 67.6892 18.3912H70.9652C70.7972 19.0512 70.4912 19.6452 70.0472 20.1732C69.6152 20.7012 69.0692 21.1152 68.4092 21.4152C67.7492 21.7152 67.0112 21.8652 66.1952 21.8652C65.2112 21.8652 64.3352 21.6552 63.5672 21.2352C62.7992 20.8152 62.1992 20.2152 61.7672 19.4352C61.3352 18.6552 61.1192 17.7432 61.1192 16.6992C61.1192 15.6552 61.3292 14.7432 61.7492 13.9632C62.1812 13.1832 62.7812 12.5832 63.5492 12.1632C64.3172 11.7432 65.1992 11.5332 66.1952 11.5332C67.1672 11.5332 68.0312 11.7372 68.7872 12.1452C69.5432 12.5532 70.1312 13.1352 70.5512 13.8912C70.9832 14.6472 71.1992 15.5292 71.1992 16.5372ZM68.0492 15.7272C68.0492 15.1992 67.8692 14.7792 67.5092 14.4672C67.1492 14.1552 66.6992 13.9992 66.1592 13.9992C65.6432 13.9992 65.2052 14.1492 64.8452 14.4492C64.4972 14.7492 64.2812 15.1752 64.1972 15.7272H68.0492ZM76.909 21.8652C76.033 21.8652 75.253 21.7152 74.569 21.4152C73.885 21.1152 73.345 20.7072 72.949 20.1912C72.553 19.6632 72.331 19.0752 72.283 18.4272H75.325C75.361 18.7752 75.523 19.0572 75.811 19.2732C76.099 19.4892 76.453 19.5972 76.873 19.5972C77.257 19.5972 77.551 19.5252 77.755 19.3812C77.971 19.2252 78.079 19.0272 78.079 18.7872C78.079 18.4992 77.929 18.2892 77.629 18.1572C77.329 18.0132 76.843 17.8572 76.171 17.6892C75.451 17.5212 74.851 17.3472 74.371 17.1672C73.891 16.9752 73.477 16.6812 73.129 16.2852C72.781 15.8772 72.607 15.3312 72.607 14.6472C72.607 14.0712 72.763 13.5492 73.075 13.0812C73.399 12.6012 73.867 12.2232 74.479 11.9472C75.103 11.6712 75.841 11.5332 76.693 11.5332C77.953 11.5332 78.943 11.8452 79.663 12.4692C80.395 13.0932 80.815 13.9212 80.923 14.9532H78.079C78.031 14.6052 77.875 14.3292 77.611 14.1252C77.359 13.9212 77.023 13.8192 76.603 13.8192C76.243 13.8192 75.967 13.8912 75.775 14.0352C75.583 14.1672 75.487 14.3532 75.487 14.5932C75.487 14.8812 75.637 15.0972 75.937 15.2412C76.249 15.3852 76.729 15.5292 77.377 15.6732C78.121 15.8652 78.727 16.0572 79.195 16.2492C79.663 16.4292 80.071 16.7292 80.419 17.1492C80.779 17.5572 80.965 18.1092 80.977 18.8052C80.977 19.3932 80.809 19.9212 80.473 20.3892C80.149 20.8452 79.675 21.2052 79.051 21.4692C78.439 21.7332 77.725 21.8652 76.909 21.8652ZM87.4321 21.8652C86.4481 21.8652 85.5601 21.6552 84.7681 21.2352C83.9881 20.8152 83.3701 20.2152 82.9141 19.4352C82.4701 18.6552 82.2481 17.7432 82.2481 16.6992C82.2481 15.6672 82.4761 14.7612 82.9321 13.9812C83.3881 13.1892 84.0121 12.5832 84.8041 12.1632C85.5961 11.7432 86.4841 11.5332 87.4681 11.5332C88.4521 11.5332 89.3401 11.7432 90.1321 12.1632C90.9241 12.5832 91.5481 13.1892 92.0041 13.9812C92.4601 14.7612 92.6881 15.6672 92.6881 16.6992C92.6881 17.7312 92.4541 18.6432 91.9861 19.4352C91.5301 20.2152 90.9001 20.8152 90.0961 21.2352C89.3041 21.6552 88.4161 21.8652 87.4321 21.8652ZM87.4321 19.2012C88.0201 19.2012 88.5181 18.9852 88.9261 18.5532C89.3461 18.1212 89.5561 17.5032 89.5561 16.6992C89.5561 15.8952 89.3521 15.2772 88.9441 14.8452C88.5481 14.4132 88.0561 14.1972 87.4681 14.1972C86.8681 14.1972 86.3701 14.4132 85.9741 14.8452C85.5781 15.2652 85.3801 15.8832 85.3801 16.6992C85.3801 17.5032 85.5721 18.1212 85.9561 18.5532C86.3521 18.9852 86.8441 19.2012 87.4321 19.2012ZM100.441 11.5692C101.617 11.5692 102.553 11.9532 103.249 12.7212C103.957 13.4772 104.311 14.5212 104.311 15.8532V21.7212H101.251V16.2672C101.251 15.5952 101.077 15.0732 100.729 14.7012C100.381 14.3292 99.9131 14.1432 99.3251 14.1432C98.7371 14.1432 98.2691 14.3292 97.9211 14.7012C97.5731 15.0732 97.3991 15.5952 97.3991 16.2672V21.7212H94.3211V11.6772H97.3991V13.0092C97.7111 12.5652 98.1311 12.2172 98.6591 11.9652C99.1871 11.7012 99.7811 11.5692 100.441 11.5692Z" fill="#ffffff"/>
<path d="M48.2648 26.1245V34.5125H47.4248V26.1245H48.2648ZM53.239 27.8405C54.023 27.8405 54.663 28.0845 55.159 28.5725C55.655 29.0525 55.903 29.7525 55.903 30.6725V34.5125H55.075V30.7685C55.075 30.0565 54.895 29.5125 54.535 29.1365C54.183 28.7605 53.699 28.5725 53.083 28.5725C52.451 28.5725 51.947 28.7725 51.571 29.1725C51.195 29.5725 51.007 30.1605 51.007 30.9365V34.5125H50.167V27.9605H51.007V29.0765C51.215 28.6765 51.515 28.3725 51.907 28.1645C52.299 27.9485 52.743 27.8405 53.239 27.8405ZM60.0168 34.6085C59.2648 34.6085 58.6488 34.4365 58.1688 34.0925C57.6968 33.7405 57.4328 33.2645 57.3768 32.6645H58.2408C58.2808 33.0325 58.4528 33.3325 58.7568 33.5645C59.0688 33.7885 59.4848 33.9005 60.0048 33.9005C60.4608 33.9005 60.8168 33.7925 61.0728 33.5765C61.3368 33.3605 61.4688 33.0925 61.4688 32.7725C61.4688 32.5485 61.3968 32.3645 61.2528 32.2205C61.1088 32.0765 60.9248 31.9645 60.7008 31.8845C60.4848 31.7965 60.1888 31.7045 59.8128 31.6085C59.3248 31.4805 58.9288 31.3525 58.6248 31.2245C58.3208 31.0965 58.0608 30.9085 57.8448 30.6605C57.6368 30.4045 57.5328 30.0645 57.5328 29.6405C57.5328 29.3205 57.6288 29.0245 57.8208 28.7525C58.0128 28.4805 58.2848 28.2645 58.6368 28.1045C58.9888 27.9445 59.3888 27.8645 59.8368 27.8645C60.5408 27.8645 61.1088 28.0445 61.5408 28.4045C61.9728 28.7565 62.2048 29.2445 62.2368 29.8685H61.3968C61.3728 29.4845 61.2208 29.1765 60.9408 28.9445C60.6688 28.7045 60.2928 28.5845 59.8128 28.5845C59.3888 28.5845 59.0448 28.6845 58.7808 28.8845C58.5168 29.0845 58.3848 29.3325 58.3848 29.6285C58.3848 29.8845 58.4608 30.0965 58.6128 30.2645C58.7728 30.4245 58.9688 30.5525 59.2008 30.6485C59.4328 30.7365 59.7448 30.8365 60.1368 30.9485C60.6088 31.0765 60.9848 31.2005 61.2648 31.3205C61.5448 31.4405 61.7848 31.6165 61.9848 31.8485C62.1848 32.0805 62.2888 32.3885 62.2968 32.7725C62.2968 33.1245 62.2008 33.4405 62.0088 33.7205C61.8168 33.9925 61.5488 34.2085 61.2048 34.3685C60.8608 34.5285 60.4648 34.6085 60.0168 34.6085ZM64.706 29.4005C64.914 28.9605 65.242 28.5965 65.69 28.3085C66.146 28.0125 66.686 27.8645 67.31 27.8645C67.902 27.8645 68.434 28.0045 68.906 28.2845C69.386 28.5565 69.758 28.9485 70.022 29.4605C70.294 29.9645 70.43 30.5525 70.43 31.2245C70.43 31.8965 70.294 32.4885 70.022 33.0005C69.758 33.5125 69.386 33.9085 68.906 34.1885C68.434 34.4685 67.902 34.6085 67.31 34.6085C66.694 34.6085 66.158 34.4645 65.702 34.1765C65.246 33.8805 64.914 33.5125 64.706 33.0725V37.6085H63.878V27.9605H64.706V29.4005ZM69.578 31.2245C69.578 30.6805 69.47 30.2125 69.254 29.8205C69.046 29.4205 68.758 29.1165 68.39 28.9085C68.022 28.7005 67.606 28.5965 67.142 28.5965C66.694 28.5965 66.282 28.7045 65.906 28.9205C65.538 29.1365 65.246 29.4445 65.03 29.8445C64.814 30.2445 64.706 30.7085 64.706 31.2365C64.706 31.7645 64.814 32.2285 65.03 32.6285C65.246 33.0285 65.538 33.3365 65.906 33.5525C66.282 33.7685 66.694 33.8765 67.142 33.8765C67.606 33.8765 68.022 33.7725 68.39 33.5645C68.758 33.3485 69.046 33.0405 69.254 32.6405C69.47 32.2325 69.578 31.7605 69.578 31.2245ZM72.3956 26.7245C72.2276 26.7245 72.0836 26.6645 71.9636 26.5445C71.8436 26.4245 71.7836 26.2765 71.7836 26.1005C71.7836 25.9245 71.8436 25.7805 71.9636 25.6685C72.0836 25.5485 72.2276 25.4885 72.3956 25.4885C72.5636 25.4885 72.7076 25.5485 72.8276 25.6685C72.9476 25.7805 73.0076 25.9245 73.0076 26.1005C73.0076 26.2765 72.9476 26.4245 72.8276 26.5445C72.7076 26.6645 72.5636 26.7245 72.3956 26.7245ZM72.8156 27.9605V34.5125H71.9756V27.9605H72.8156ZM75.5578 29.1245C75.7418 28.7165 76.0218 28.4005 76.3978 28.1765C76.7818 27.9525 77.2498 27.8405 77.8018 27.8405V28.7165H77.5738C76.9658 28.7165 76.4778 28.8805 76.1098 29.2085C75.7418 29.5365 75.5578 30.0845 75.5578 30.8525V34.5125H74.7178V27.9605H75.5578V29.1245ZM79.4855 26.7245C79.3175 26.7245 79.1735 26.6645 79.0535 26.5445C78.9335 26.4245 78.8735 26.2765 78.8735 26.1005C78.8735 25.9245 78.9335 25.7805 79.0535 25.6685C79.1735 25.5485 79.3175 25.4885 79.4855 25.4885C79.6535 25.4885 79.7975 25.5485 79.9175 25.6685C80.0375 25.7805 80.0975 25.9245 80.0975 26.1005C80.0975 26.2765 80.0375 26.4245 79.9175 26.5445C79.7975 26.6645 79.6535 26.7245 79.4855 26.7245ZM79.9055 27.9605V34.5125H79.0655V27.9605H79.9055ZM84.8797 27.8405C85.6637 27.8405 86.3037 28.0845 86.7997 28.5725C87.2957 29.0525 87.5437 29.7525 87.5437 30.6725V34.5125H86.7157V30.7685C86.7157 30.0565 86.5357 29.5125 86.1757 29.1365C85.8237 28.7605 85.3397 28.5725 84.7237 28.5725C84.0917 28.5725 83.5877 28.7725 83.2117 29.1725C82.8357 29.5725 82.6477 30.1605 82.6477 30.9365V34.5125H81.8077V27.9605H82.6477V29.0765C82.8557 28.6765 83.1557 28.3725 83.5477 28.1645C83.9397 27.9485 84.3837 27.8405 84.8797 27.8405ZM92.1494 27.8645C92.7654 27.8645 93.3014 28.0085 93.7574 28.2965C94.2134 28.5845 94.5414 28.9485 94.7414 29.3885V27.9605H95.5814V34.6805C95.5814 35.2805 95.4494 35.8125 95.1854 36.2765C94.9294 36.7405 94.5694 37.0965 94.1054 37.3445C93.6414 37.6005 93.1134 37.7285 92.5214 37.7285C91.6814 37.7285 90.9814 37.5285 90.4214 37.1285C89.8694 36.7285 89.5254 36.1845 89.3894 35.4965H90.2174C90.3614 35.9525 90.6334 36.3165 91.0334 36.5885C91.4414 36.8605 91.9374 36.9965 92.5214 36.9965C92.9454 36.9965 93.3254 36.9045 93.6614 36.7205C93.9974 36.5445 94.2614 36.2805 94.4534 35.9285C94.6454 35.5765 94.7414 35.1605 94.7414 34.6805V33.0605C94.5334 33.5085 94.2014 33.8805 93.7454 34.1765C93.2974 34.4645 92.7654 34.6085 92.1494 34.6085C91.5494 34.6085 91.0094 34.4685 90.5294 34.1885C90.0574 33.9085 89.6854 33.5125 89.4134 33.0005C89.1494 32.4885 89.0174 31.8965 89.0174 31.2245C89.0174 30.5525 89.1494 29.9645 89.4134 29.4605C89.6854 28.9485 90.0574 28.5565 90.5294 28.2845C91.0094 28.0045 91.5494 27.8645 92.1494 27.8645ZM94.7414 31.2365C94.7414 30.7085 94.6334 30.2445 94.4174 29.8445C94.2014 29.4445 93.9054 29.1365 93.5294 28.9205C93.1614 28.7045 92.7534 28.5965 92.3054 28.5965C91.8414 28.5965 91.4254 28.7005 91.0574 28.9085C90.6894 29.1165 90.3974 29.4205 90.1814 29.8205C89.9734 30.2125 89.8694 30.6805 89.8694 31.2245C89.8694 31.7605 89.9734 32.2325 90.1814 32.6405C90.3974 33.0405 90.6894 33.3485 91.0574 33.5645C91.4254 33.7725 91.8414 33.8765 92.3054 33.8765C92.7534 33.8765 93.1614 33.7685 93.5294 33.5525C93.9054 33.3365 94.2014 33.0285 94.4174 32.6285C94.6334 32.2285 94.7414 31.7645 94.7414 31.2365ZM103.54 27.8645C104.156 27.8645 104.692 28.0085 105.148 28.2965C105.604 28.5845 105.932 28.9485 106.132 29.3885V27.9605H106.972V34.6805C106.972 35.2805 106.84 35.8125 106.576 36.2765C106.32 36.7405 105.96 37.0965 105.496 37.3445C105.032 37.6005 104.504 37.7285 103.912 37.7285C103.072 37.7285 102.372 37.5285 101.812 37.1285C101.26 36.7285 100.916 36.1845 100.78 35.4965H101.608C101.752 35.9525 102.024 36.3165 102.424 36.5885C102.832 36.8605 103.328 36.9965 103.912 36.9965C104.336 36.9965 104.716 36.9045 105.052 36.7205C105.388 36.5445 105.652 36.2805 105.844 35.9285C106.036 35.5765 106.132 35.1605 106.132 34.6805V33.0605C105.924 33.5085 105.592 33.8805 105.136 34.1765C104.688 34.4645 104.156 34.6085 103.54 34.6085C102.94 34.6085 102.4 34.4685 101.92 34.1885C101.448 33.9085 101.076 33.5125 100.804 33.0005C100.54 32.4885 100.408 31.8965 100.408 31.2245C100.408 30.5525 100.54 29.9645 100.804 29.4605C101.076 28.9485 101.448 28.5565 101.92 28.2845C102.4 28.0045 102.94 27.8645 103.54 27.8645ZM106.132 31.2365C106.132 30.7085 106.024 30.2445 105.808 29.8445C105.592 29.4445 105.296 29.1365 104.92 28.9205C104.552 28.7045 104.144 28.5965 103.696 28.5965C103.232 28.5965 102.816 28.7005 102.448 28.9085C102.08 29.1165 101.788 29.4205 101.572 29.8205C101.364 30.2125 101.26 30.6805 101.26 31.2245C101.26 31.7605 101.364 32.2325 101.572 32.6405C101.788 33.0405 102.08 33.3485 102.448 33.5645C102.816 33.7725 103.232 33.8765 103.696 33.8765C104.144 33.8765 104.552 33.7685 104.92 33.5525C105.296 33.3365 105.592 33.0285 105.808 32.6285C106.024 32.2285 106.132 31.7645 106.132 31.2365ZM114.818 30.9005C114.818 31.1885 114.81 31.4085 114.794 31.5605H109.358C109.382 32.0565 109.502 32.4805 109.718 32.8325C109.934 33.1845 110.218 33.4525 110.57 33.6365C110.922 33.8125 111.306 33.9005 111.722 33.9005C112.266 33.9005 112.722 33.7685 113.09 33.5045C113.466 33.2405 113.714 32.8845 113.834 32.4365H114.722C114.562 33.0765 114.218 33.6005 113.69 34.0085C113.17 34.4085 112.514 34.6085 111.722 34.6085C111.106 34.6085 110.554 34.4725 110.066 34.2005C109.578 33.9205 109.194 33.5285 108.914 33.0245C108.642 32.5125 108.506 31.9165 108.506 31.2365C108.506 30.5565 108.642 29.9605 108.914 29.4485C109.186 28.9365 109.566 28.5445 110.054 28.2725C110.542 28.0005 111.098 27.8645 111.722 27.8645C112.346 27.8645 112.89 28.0005 113.354 28.2725C113.826 28.5445 114.186 28.9125 114.434 29.3765C114.69 29.8325 114.818 30.3405 114.818 30.9005ZM113.966 30.8765C113.974 30.3885 113.874 29.9725 113.666 29.6285C113.466 29.2845 113.19 29.0245 112.838 28.8485C112.486 28.6725 112.102 28.5845 111.686 28.5845C111.062 28.5845 110.53 28.7845 110.09 29.1845C109.65 29.5845 109.406 30.1485 109.358 30.8765H113.966ZM119.427 27.8405C120.211 27.8405 120.851 28.0845 121.347 28.5725C121.843 29.0525 122.091 29.7525 122.091 30.6725V34.5125H121.263V30.7685C121.263 30.0565 121.083 29.5125 120.723 29.1365C120.371 28.7605 119.887 28.5725 119.271 28.5725C118.639 28.5725 118.135 28.7725 117.759 29.1725C117.383 29.5725 117.195 30.1605 117.195 30.9365V34.5125H116.355V27.9605H117.195V29.0765C117.403 28.6765 117.703 28.3725 118.095 28.1645C118.487 27.9485 118.931 27.8405 119.427 27.8405ZM124.788 29.1245C124.972 28.7165 125.252 28.4005 125.628 28.1765C126.012 27.9525 126.48 27.8405 127.032 27.8405V28.7165H126.804C126.196 28.7165 125.708 28.8805 125.34 29.2085C124.972 29.5365 124.788 30.0845 124.788 30.8525V34.5125H123.948V27.9605H124.788V29.1245ZM127.912 31.2245C127.912 30.5525 128.044 29.9645 128.308 29.4605C128.58 28.9485 128.952 28.5565 129.424 28.2845C129.904 28.0045 130.444 27.8645 131.044 27.8645C131.668 27.8645 132.204 28.0085 132.652 28.2965C133.108 28.5845 133.436 28.9525 133.636 29.4005V27.9605H134.476V34.5125H133.636V33.0605C133.428 33.5085 133.096 33.8805 132.64 34.1765C132.192 34.4645 131.656 34.6085 131.032 34.6085C130.44 34.6085 129.904 34.4685 129.424 34.1885C128.952 33.9085 128.58 33.5125 128.308 33.0005C128.044 32.4885 127.912 31.8965 127.912 31.2245ZM133.636 31.2365C133.636 30.7085 133.528 30.2445 133.312 29.8445C133.096 29.4445 132.8 29.1365 132.424 28.9205C132.056 28.7045 131.648 28.5965 131.2 28.5965C130.736 28.5965 130.32 28.7005 129.952 28.9085C129.584 29.1165 129.292 29.4205 129.076 29.8205C128.868 30.2125 128.764 30.6805 128.764 31.2245C128.764 31.7605 128.868 32.2325 129.076 32.6405C129.292 33.0405 129.584 33.3485 129.952 33.5645C130.32 33.7725 130.736 33.8765 131.2 33.8765C131.648 33.8765 132.056 33.7685 132.424 33.5525C132.8 33.3365 133.096 33.0285 133.312 32.6285C133.528 32.2285 133.636 31.7645 133.636 31.2365ZM137.486 28.6685V32.7365C137.486 33.1365 137.562 33.4125 137.714 33.5645C137.866 33.7165 138.134 33.7925 138.518 33.7925H139.286V34.5125H138.386C137.794 34.5125 137.354 34.3765 137.066 34.1045C136.778 33.8245 136.634 33.3685 136.634 32.7365V28.6685H135.722V27.9605H136.634V26.3165H137.486V27.9605H139.286V28.6685H137.486ZM141.091 26.7245C140.923 26.7245 140.779 26.6645 140.659 26.5445C140.539 26.4245 140.479 26.2765 140.479 26.1005C140.479 25.9245 140.539 25.7805 140.659 25.6685C140.779 25.5485 140.923 25.4885 141.091 25.4885C141.259 25.4885 141.403 25.5485 141.523 25.6685C141.643 25.7805 141.703 25.9245 141.703 26.1005C141.703 26.2765 141.643 26.4245 141.523 26.5445C141.403 26.6645 141.259 26.7245 141.091 26.7245ZM141.511 27.9605V34.5125H140.671V27.9605H141.511ZM146.281 34.6085C145.665 34.6085 145.109 34.4725 144.613 34.2005C144.125 33.9205 143.737 33.5285 143.449 33.0245C143.169 32.5125 143.029 31.9165 143.029 31.2365C143.029 30.5565 143.173 29.9645 143.461 29.4605C143.749 28.9485 144.141 28.5565 144.637 28.2845C145.133 28.0045 145.689 27.8645 146.305 27.8645C146.921 27.8645 147.477 28.0045 147.973 28.2845C148.477 28.5565 148.869 28.9485 149.149 29.4605C149.437 29.9645 149.581 30.5565 149.581 31.2365C149.581 31.9085 149.437 32.5005 149.149 33.0125C148.861 33.5245 148.465 33.9205 147.961 34.2005C147.457 34.4725 146.897 34.6085 146.281 34.6085ZM146.281 33.8765C146.713 33.8765 147.113 33.7805 147.481 33.5885C147.849 33.3885 148.145 33.0925 148.369 32.7005C148.601 32.3005 148.717 31.8125 148.717 31.2365C148.717 30.6605 148.605 30.1765 148.381 29.7845C148.157 29.3845 147.861 29.0885 147.493 28.8965C147.125 28.6965 146.725 28.5965 146.293 28.5965C145.861 28.5965 145.461 28.6965 145.093 28.8965C144.725 29.0885 144.429 29.3845 144.205 29.7845C143.989 30.1765 143.881 30.6605 143.881 31.2365C143.881 31.8125 143.989 32.3005 144.205 32.7005C144.429 33.0925 144.721 33.3885 145.081 33.5885C145.449 33.7805 145.849 33.8765 146.281 33.8765ZM154.184 27.8405C154.968 27.8405 155.608 28.0845 156.104 28.5725C156.6 29.0525 156.848 29.7525 156.848 30.6725V34.5125H156.02V30.7685C156.02 30.0565 155.84 29.5125 155.48 29.1365C155.128 28.7605 154.644 28.5725 154.028 28.5725C153.396 28.5725 152.892 28.7725 152.516 29.1725C152.14 29.5725 151.952 30.1605 151.952 30.9365V34.5125H151.112V27.9605H151.952V29.0765C152.16 28.6765 152.46 28.3725 152.852 28.1645C153.244 27.9485 153.688 27.8405 154.184 27.8405Z" fill="#ffffff"/>
<path d="M25.699 32.1329C33.043 28.7776 36.2203 20.2244 32.7958 13.0288C29.3712 5.83325 20.6415 2.72015 13.2975 6.07549C5.9535 9.43084 2.77616 17.984 6.20073 25.1796C9.6253 32.3751 18.355 35.4883 25.699 32.1329Z" stroke="#ffffff" stroke-width="1.95137" stroke-linecap="round" stroke-linejoin="round"/>
<path d="M7.10552 28.6229L33.7006 16.4722M3.85904 21.4427L30.4541 9.29198" stroke="#ffffff" stroke-width="1.95137" stroke-linecap="round" stroke-linejoin="round"/>
<path d="M12.6999 5.62698C17.7239 7.67507 21.8177 11.4415 24.2196 16.2255C26.4161 21.1035 26.7294 26.597 25.1013 31.6844C20.0773 29.6363 15.9835 25.8699 13.5816 21.0858C11.3851 16.2079 11.0718 10.7143 12.6999 5.62698Z" stroke="#ffffff" stroke-width="1.95137" stroke-linecap="round" stroke-linejoin="round"/>
</svg>
